<?xml version="1.0" encoding="UTF-8"?>
<svg id="Mode_Isolation" data-name="Mode Isolation" xmlns="http://www.w3.org/2000/svg" version="1.1" viewBox="0 0 425.2 78.2">
  <defs>
    <style>
      .cls-1 {
        fill: #552613;
        stroke-width: 0px;
      }
    </style>
  </defs>
  <path class="cls-1" d="M0,76V2.3h15.4v60.3h26.7v13.4H0Z"/>
  <path class="cls-1" d="M55.1,76V2.3h15.4v73.7h-15.4Z"/>
  <path class="cls-1" d="M85.2,39.2C85.2,15.2,97.9.1,118.3.1s27.7,10.5,30.2,27.6l-14.3,2.7c-1.8-10.6-7.6-16.9-15.9-16.9s-17.7,9.7-17.7,25.7,7.7,25.5,19.9,25.5,17.2-7.5,19-19.7l14.5,2.4c-2.4,18.9-15.4,30.8-33.6,30.8s-35.2-15-35.2-39Z"/>
  <path class="cls-1" d="M162,26.6c0-7.1,5.1-12.1,12.1-12.1s12.1,5.1,12.1,12.1-5.1,12-12.1,12-12.1-5.1-12.1-12ZM180.8,26.6c0-3.9-2.8-6.8-6.7-6.8s-6.8,2.9-6.8,6.8,2.9,6.7,6.8,6.7,6.7-2.8,6.7-6.7ZM175,59.6l-1.9-1.3,31.2-44.3,2,1.3-31.4,44.3ZM192.8,47.8c0-7.1,5.1-12.1,12.1-12.1s12.1,5.1,12.1,12.1-5.1,12-12.1,12-12.1-5.1-12.1-12ZM211.6,47.8c0-3.9-2.8-6.8-6.7-6.8s-6.8,2.9-6.8,6.8,2.8,6.7,6.8,6.7,6.7-2.8,6.7-6.7Z"/>
  <path class="cls-1" d="M264.6,67.2l-3.2-12.6c-1.1-4.4-4.1-7.5-8.1-7.5h-9.2v28.9h-15.4V2.3h30.2c16.4,0,26.7,8.8,26.7,22.7s-5.8,17-15.8,19.4h0c3.8,1.8,5.7,5,6.7,9.2l2.4,9.7c.5,2.4,1.6,3.9,3.4,3.9s3-1,4.5-3l3.8,7.6c-3.3,3.7-8.3,5.9-13.4,5.9s-11.1-4.2-12.6-10.6ZM244.1,36.1h13.5c7.6,0,12.5-4.2,12.5-10.9s-5-11.1-12.5-11.1h-13.5v22Z"/>
  <path class="cls-1" d="M302.4,76V2.3h19.1l26.3,55.2h.2V2.3h14.5v73.7h-19.2l-26.3-55h-.2v55h-14.4Z"/>
  <path class="cls-1" d="M379.4,76V2.3h44.8v12.6h-29.8v17.6h25.7v11.2h-25.7v19.7h30.9v12.5h-45.8Z"/>
</svg>