<svg width="53" height="60" viewBox="0 0 53 60" fill="none" xmlns="http://www.w3.org/2000/svg">
<path id="Vector" d="M52.3624 24.6001C47.3062 24.6111 42.3744 22.9999 38.264 19.9942V40.9493C38.2629 44.8303 37.1009 48.6185 34.9336 51.8071C32.7663 54.9957 29.697 57.4328 26.1361 58.7924C22.5752 60.152 18.6926 60.3693 15.0074 59.4152C11.3223 58.4612 8.01036 56.3813 5.51456 53.4537C3.01875 50.5261 1.45808 46.8903 1.04126 43.0327C0.624443 39.1751 1.37135 35.2796 3.1821 31.867C4.99285 28.4545 7.7811 25.6877 11.174 23.9367C14.5668 22.1857 18.4025 21.5339 22.1681 22.0686V32.6048C20.4463 32.0515 18.5972 32.0676 16.885 32.651C15.1727 33.2344 13.6848 34.3551 12.6336 35.8532C11.5825 37.3512 11.0219 39.15 11.0319 40.9927C11.0419 42.8354 11.6219 44.6277 12.6892 46.1138C13.7565 47.5999 15.2565 48.7038 16.9749 49.2678C18.6934 49.8318 20.5425 49.8271 22.2582 49.2544C23.9739 48.6817 25.4685 47.5703 26.5286 46.0788C27.5886 44.5873 28.16 42.792 28.161 40.9493V0H38.264C38.2583 0.87227 38.3313 1.74322 38.4822 2.60182C38.8335 4.51568 39.5635 6.3363 40.6275 7.95241C41.6914 9.56853 43.0671 10.9462 44.6703 12.0012C46.9524 13.5398 49.6275 14.3591 52.3624 14.3569V24.6001Z" fill="#E30613"/>
</svg>
