<svg width="59" height="60" viewBox="0 0 59 60" fill="none" xmlns="http://www.w3.org/2000/svg">
<path id="Vector" d="M25.5708 24.067C24.8047 24.5884 24.147 25.2584 23.6352 26.0387C23.1234 26.819 22.7676 27.6943 22.5881 28.6146C22.2255 30.4732 22.6028 32.4024 23.6372 33.9777C24.6716 35.553 26.2782 36.6454 28.1036 37.0146C29.929 37.3838 31.8237 36.9996 33.3709 35.9464C34.9181 34.8933 35.991 33.2574 36.3537 31.3988C36.7163 29.5402 36.3389 27.611 35.3045 26.0357C34.2702 24.4604 32.6636 23.368 30.8381 22.9988C29.0127 22.6295 27.118 23.0138 25.5708 24.067ZM44.2885 14.9062C43.6045 14.2098 42.7758 13.6607 41.8682 13.2991C39.4874 12.3482 34.2917 12.3884 30.9375 12.4286C30.3982 12.4286 29.8984 12.442 29.4643 12.442C29.0302 12.442 28.5172 12.442 27.9648 12.4286C24.6106 12.3884 19.4412 12.3348 17.0603 13.2991C16.1527 13.6607 15.3372 14.2098 14.6401 14.9062C13.9429 15.6027 13.4168 16.4464 13.0616 17.3705C12.1277 19.7946 12.1803 25.0982 12.2066 28.5134C12.2066 29.0625 12.2198 29.5714 12.2198 30C12.2198 30.4286 12.2198 30.9375 12.2066 31.4866C12.1803 34.9018 12.1277 40.2054 13.0616 42.6295C13.4168 43.5536 13.9561 44.3839 14.6401 45.0938C15.3241 45.8036 16.1527 46.3393 17.0603 46.7009C19.4412 47.6518 24.6369 47.6116 27.9911 47.5714C28.5304 47.5714 29.0302 47.558 29.4643 47.558C29.8984 47.558 30.4114 47.558 30.9638 47.5714C34.318 47.6116 39.4874 47.6652 41.8682 46.7009C42.7758 46.3393 43.5914 45.7902 44.2885 45.0938C44.9857 44.3973 45.5118 43.5536 45.867 42.6295C46.814 40.2187 46.7614 34.942 46.7219 31.5134C46.7219 30.9509 46.7088 30.4286 46.7088 29.9866C46.7088 29.5446 46.7088 29.0357 46.7219 28.4598C46.7614 25.0446 46.814 19.7679 45.867 17.3438C45.5118 16.4196 44.9725 15.5893 44.2885 14.8795V14.9062ZM35.4624 20.8661C37.8416 22.4858 39.4914 25.0015 40.0489 27.8597C40.6064 30.718 40.0259 33.6847 38.4351 36.1071C37.6474 37.3066 36.6354 38.3364 35.4569 39.1377C34.2783 39.9389 32.9563 40.496 31.5663 40.7771C28.7591 41.3447 25.8454 40.7536 23.4662 39.1339C21.087 37.516 19.4365 35.002 18.8777 32.145C18.319 29.288 18.8978 26.322 20.4869 23.8996C22.0759 21.4771 24.545 19.7966 27.351 19.2277C30.157 18.6588 33.07 19.2481 35.4492 20.8661H35.4624ZM39.3032 20.692C38.8955 20.4107 38.5666 20.0089 38.3693 19.5402C38.172 19.0714 38.1326 18.5625 38.2247 18.0536C38.3167 17.5446 38.5666 17.1027 38.9086 16.7411C39.2506 16.3795 39.711 16.1384 40.1977 16.0446C40.6844 15.9509 41.1974 15.9911 41.6578 16.192C42.1181 16.3929 42.5128 16.7143 42.789 17.1295C43.0652 17.5446 43.2099 18.0402 43.2099 18.5491C43.2099 18.8839 43.1441 19.2188 43.0257 19.5268C42.9074 19.8348 42.7101 20.1161 42.4864 20.3571C42.2628 20.5982 41.9735 20.7857 41.6709 20.9196C41.3684 21.0536 41.0395 21.1205 40.7107 21.1205C40.2109 21.1205 39.7242 20.9732 39.3164 20.692H39.3032ZM58.9286 8.57143C58.9286 3.84375 55.1535 0 50.5102 0H8.41837C3.77511 0 0 3.84375 0 8.57143V51.4286C0 56.1562 3.77511 60 8.41837 60H50.5102C55.1535 60 58.9286 56.1562 58.9286 51.4286V8.57143ZM46.9587 47.8125C44.499 50.317 41.5131 51.1071 38.1457 51.2812C34.6731 51.4821 24.2554 51.4821 20.7828 51.2812C17.4155 51.1071 14.4296 50.317 11.9699 47.8125C9.51012 45.308 8.73406 42.2679 8.57621 38.8393C8.37891 35.3036 8.37891 24.6964 8.57621 21.1607C8.74721 17.7321 9.51012 14.692 11.9699 12.1875C14.4296 9.68303 17.4287 8.89286 20.7828 8.73214C24.2554 8.53125 34.6731 8.53125 38.1457 8.73214C41.5131 8.90625 44.499 9.68303 46.9587 12.1875C49.4184 14.692 50.1945 17.7321 50.3524 21.1607C50.5497 24.683 50.5497 35.2768 50.3524 38.8259C50.1814 42.2545 49.4184 45.2946 46.9587 47.7991V47.8125Z" fill="#E30613"/>
</svg>
